<svg xmlns="http://www.w3.org/2000/svg" xmlns:xlink="http://www.w3.org/1999/xlink" width="500" zoomAndPan="magnify" viewBox="0 0 375 374.999991" height="500" preserveAspectRatio="xMidYMid meet" version="1.0"><defs><g/></defs><rect x="-37.5" width="450" fill="#ffffff" y="-37.499999" height="449.999989" fill-opacity="1"/><rect x="-37.5" width="450" fill="#ffffff" y="-37.499999" height="449.999989" fill-opacity="1"/><g fill="#000000" fill-opacity="0.2784"><g transform="translate(87.896259, 232.144833)"><g><path d="M 202.71875 -47.515625 C 203.40625 -46.546875 203.644531 -45.539062 203.4375 -44.5 C 203.226562 -43.46875 202.640625 -42.601562 201.671875 -41.90625 C 180.234375 -26.550781 160.660156 -12.03125 142.953125 1.65625 C 144.753906 7.332031 144.960938 13.554688 143.578125 20.328125 C 141.367188 32.085938 137.390625 43.050781 131.640625 53.21875 C 125.898438 63.382812 119.191406 72.648438 111.515625 81.015625 C 103.835938 89.390625 95.816406 96.582031 87.453125 102.59375 C 79.085938 108.613281 71.097656 113.316406 63.484375 116.703125 C 55.878906 120.097656 49.3125 122.003906 43.78125 122.421875 C 42.945312 122.554688 42.1875 122.625 41.5 122.625 C 37.207031 122.625 34.160156 121.757812 32.359375 120.03125 C 30.566406 118.300781 29.394531 116.675781 28.84375 115.15625 C 25.65625 106.4375 33.085938 92.082031 51.140625 72.09375 C 69.191406 52.113281 96.546875 27.804688 133.203125 -0.828125 C 128.640625 -8.992188 119.472656 -16.53125 105.703125 -23.4375 C 91.941406 -30.351562 73.722656 -38.378906 51.046875 -47.515625 C 48.410156 -48.617188 45.707031 -49.722656 42.9375 -50.828125 C 40.175781 -51.941406 37.34375 -53.117188 34.4375 -54.359375 C 24.476562 -58.503906 17.5625 -64.101562 13.6875 -71.15625 C 9.820312 -78.21875 9.335938 -86.3125 12.234375 -95.4375 C 14.453125 -102.5 18.328125 -109.691406 23.859375 -117.015625 C 29.390625 -124.347656 36.097656 -131.644531 43.984375 -138.90625 C 51.867188 -146.164062 60.441406 -153.082031 69.703125 -159.65625 C 78.972656 -166.226562 88.453125 -172.210938 98.140625 -177.609375 C 107.828125 -183.003906 117.300781 -187.566406 126.5625 -191.296875 C 135.832031 -195.035156 144.375 -197.664062 152.1875 -199.1875 C 160 -200.707031 166.601562 -200.84375 172 -199.59375 C 174.21875 -199.039062 176.675781 -198.003906 179.375 -196.484375 C 182.070312 -194.960938 184.210938 -192.503906 185.796875 -189.109375 C 187.390625 -185.722656 187.84375 -181.054688 187.15625 -175.109375 C 186.875 -174.003906 186.316406 -173.140625 185.484375 -172.515625 C 184.660156 -171.898438 183.695312 -171.660156 182.59375 -171.796875 C 181.476562 -171.929688 180.578125 -172.445312 179.890625 -173.34375 C 179.203125 -174.25 178.925781 -175.253906 179.0625 -176.359375 C 179.882812 -182.171875 179.257812 -186.046875 177.1875 -187.984375 C 175.113281 -189.921875 172.832031 -191.164062 170.34375 -191.71875 C 165.082031 -192.957031 158.128906 -192.539062 149.484375 -190.46875 C 140.847656 -188.394531 131.203125 -184.898438 120.546875 -179.984375 C 109.898438 -175.078125 98.972656 -169.03125 87.765625 -161.84375 C 75.867188 -154.375 65.179688 -146.59375 55.703125 -138.5 C 46.234375 -130.40625 38.421875 -122.484375 32.265625 -114.734375 C 26.109375 -106.992188 21.992188 -99.800781 19.921875 -93.15625 C 15.359375 -78.914062 21.238281 -68.40625 37.5625 -61.625 C 40.457031 -60.519531 43.253906 -59.410156 45.953125 -58.296875 C 48.648438 -57.191406 51.382812 -56.085938 54.15625 -54.984375 C 68.125 -49.304688 80.8125 -43.941406 92.21875 -38.890625 C 103.632812 -33.847656 113.390625 -28.695312 121.484375 -23.4375 C 129.578125 -18.1875 135.628906 -12.3125 139.640625 -5.8125 C 157.066406 -19.363281 176.222656 -33.539062 197.109375 -48.34375 C 198.078125 -49.03125 199.078125 -49.269531 200.109375 -49.0625 C 201.148438 -48.863281 202.019531 -48.347656 202.71875 -47.515625 Z M 135.90625 18.671875 C 136.726562 14.523438 136.796875 10.648438 136.109375 7.046875 C 106.648438 30.148438 83.273438 50.488281 65.984375 68.0625 C 55.878906 78.425781 48.128906 87.65625 42.734375 95.75 C 37.347656 103.84375 35.207031 109.410156 36.3125 112.453125 C 36.726562 113.554688 37.695312 114.210938 39.21875 114.421875 C 40.738281 114.628906 42.050781 114.664062 43.15625 114.53125 C 47.71875 114.25 53.457031 112.519531 60.375 109.34375 C 67.289062 106.164062 74.617188 101.773438 82.359375 96.171875 C 90.109375 90.566406 97.648438 83.890625 104.984375 76.140625 C 112.316406 68.398438 118.75 59.6875 124.28125 50 C 129.8125 40.320312 133.6875 29.878906 135.90625 18.671875 Z M 135.90625 18.671875 "/></g></g></g><g fill="#000000" fill-opacity="1"><g transform="translate(82.584735, 228.425665)"><g><path d="M 202.71875 -47.515625 C 203.40625 -46.546875 203.644531 -45.539062 203.4375 -44.5 C 203.226562 -43.46875 202.640625 -42.601562 201.671875 -41.90625 C 180.234375 -26.550781 160.660156 -12.03125 142.953125 1.65625 C 144.753906 7.332031 144.960938 13.554688 143.578125 20.328125 C 141.367188 32.085938 137.390625 43.050781 131.640625 53.21875 C 125.898438 63.382812 119.191406 72.648438 111.515625 81.015625 C 103.835938 89.390625 95.816406 96.582031 87.453125 102.59375 C 79.085938 108.613281 71.097656 113.316406 63.484375 116.703125 C 55.878906 120.097656 49.3125 122.003906 43.78125 122.421875 C 42.945312 122.554688 42.1875 122.625 41.5 122.625 C 37.207031 122.625 34.160156 121.757812 32.359375 120.03125 C 30.566406 118.300781 29.394531 116.675781 28.84375 115.15625 C 25.65625 106.4375 33.085938 92.082031 51.140625 72.09375 C 69.191406 52.113281 96.546875 27.804688 133.203125 -0.828125 C 128.640625 -8.992188 119.472656 -16.53125 105.703125 -23.4375 C 91.941406 -30.351562 73.722656 -38.378906 51.046875 -47.515625 C 48.410156 -48.617188 45.707031 -49.722656 42.9375 -50.828125 C 40.175781 -51.941406 37.34375 -53.117188 34.4375 -54.359375 C 24.476562 -58.503906 17.5625 -64.101562 13.6875 -71.15625 C 9.820312 -78.21875 9.335938 -86.3125 12.234375 -95.4375 C 14.453125 -102.5 18.328125 -109.691406 23.859375 -117.015625 C 29.390625 -124.347656 36.097656 -131.644531 43.984375 -138.90625 C 51.867188 -146.164062 60.441406 -153.082031 69.703125 -159.65625 C 78.972656 -166.226562 88.453125 -172.210938 98.140625 -177.609375 C 107.828125 -183.003906 117.300781 -187.566406 126.5625 -191.296875 C 135.832031 -195.035156 144.375 -197.664062 152.1875 -199.1875 C 160 -200.707031 166.601562 -200.84375 172 -199.59375 C 174.21875 -199.039062 176.675781 -198.003906 179.375 -196.484375 C 182.070312 -194.960938 184.210938 -192.503906 185.796875 -189.109375 C 187.390625 -185.722656 187.84375 -181.054688 187.15625 -175.109375 C 186.875 -174.003906 186.316406 -173.140625 185.484375 -172.515625 C 184.660156 -171.898438 183.695312 -171.660156 182.59375 -171.796875 C 181.476562 -171.929688 180.578125 -172.445312 179.890625 -173.34375 C 179.203125 -174.25 178.925781 -175.253906 179.0625 -176.359375 C 179.882812 -182.171875 179.257812 -186.046875 177.1875 -187.984375 C 175.113281 -189.921875 172.832031 -191.164062 170.34375 -191.71875 C 165.082031 -192.957031 158.128906 -192.539062 149.484375 -190.46875 C 140.847656 -188.394531 131.203125 -184.898438 120.546875 -179.984375 C 109.898438 -175.078125 98.972656 -169.03125 87.765625 -161.84375 C 75.867188 -154.375 65.179688 -146.59375 55.703125 -138.5 C 46.234375 -130.40625 38.421875 -122.484375 32.265625 -114.734375 C 26.109375 -106.992188 21.992188 -99.800781 19.921875 -93.15625 C 15.359375 -78.914062 21.238281 -68.40625 37.5625 -61.625 C 40.457031 -60.519531 43.253906 -59.410156 45.953125 -58.296875 C 48.648438 -57.191406 51.382812 -56.085938 54.15625 -54.984375 C 68.125 -49.304688 80.8125 -43.941406 92.21875 -38.890625 C 103.632812 -33.847656 113.390625 -28.695312 121.484375 -23.4375 C 129.578125 -18.1875 135.628906 -12.3125 139.640625 -5.8125 C 157.066406 -19.363281 176.222656 -33.539062 197.109375 -48.34375 C 198.078125 -49.03125 199.078125 -49.269531 200.109375 -49.0625 C 201.148438 -48.863281 202.019531 -48.347656 202.71875 -47.515625 Z M 135.90625 18.671875 C 136.726562 14.523438 136.796875 10.648438 136.109375 7.046875 C 106.648438 30.148438 83.273438 50.488281 65.984375 68.0625 C 55.878906 78.425781 48.128906 87.65625 42.734375 95.75 C 37.347656 103.84375 35.207031 109.410156 36.3125 112.453125 C 36.726562 113.554688 37.695312 114.210938 39.21875 114.421875 C 40.738281 114.628906 42.050781 114.664062 43.15625 114.53125 C 47.71875 114.25 53.457031 112.519531 60.375 109.34375 C 67.289062 106.164062 74.617188 101.773438 82.359375 96.171875 C 90.109375 90.566406 97.648438 83.890625 104.984375 76.140625 C 112.316406 68.398438 118.75 59.6875 124.28125 50 C 129.8125 40.320312 133.6875 29.878906 135.90625 18.671875 Z M 135.90625 18.671875 "/></g></g></g></svg>